<svg xmlns="http://www.w3.org/2000/svg" version="1.1" xmlns:xlink="http://www.w3.org/1999/xlink" xmlns:svgjs="http://svgjs.dev/svgjs" width="1500" height="935" viewBox="0 0 1500 935"><g transform="matrix(1,0,0,1,-0.9090909090909918,0.3785425101214628)"><svg viewBox="0 0 396 247" data-background-color="#dee5ed" preserveAspectRatio="xMidYMid meet" height="935" width="1500" xmlns="http://www.w3.org/2000/svg" xmlns:xlink="http://www.w3.org/1999/xlink"><g id="tight-bounds" transform="matrix(1,0,0,1,0.2400000000000091,-0.09999999999999432)"><svg viewBox="0 0 395.52 247.2" height="247.2" width="395.52"><g><svg></svg></g><g><svg viewBox="0 0 395.52 247.2" height="247.2" width="395.52"><g transform="matrix(1,0,0,1,75.54432,74.83895329854492)"><svg viewBox="0 0 244.43135999999998 97.52209340291014" height="97.52209340291014" width="244.43135999999998"><g><svg viewBox="0 0 244.43135999999998 97.52209340291014" height="97.52209340291014" width="244.43135999999998"><g><svg viewBox="0 0 244.43135999999998 97.52209340291014" height="97.52209340291014" width="244.43135999999998"><g><svg viewBox="0 0 244.43135999999998 97.52209340291014" height="97.52209340291014" width="244.43135999999998"><g id="textblocktransform"><svg viewBox="0 0 244.43135999999998 97.52209340291014" height="97.52209340291014" width="244.43135999999998" id="textblock"><g><svg viewBox="0 0 244.43135999999998 68.64417093610699" height="68.64417093610699" width="244.43135999999998"><g transform="matrix(1,0,0,1,0,0)"><svg width="244.43135999999998" viewBox="3.38 -32.43 117.76 33.08" height="68.64417093610699" data-palette-color="#025cbc"><path d="M15.48 0.65L15.48 0.65Q12.23 0.65 9.5-0.51 6.78-1.68 5.11-3.98 3.45-6.28 3.38-9.73L3.38-9.73 8.03-9.73Q8.03-7.65 9.04-6.33 10.05-5 11.73-4.36 13.4-3.73 15.43-3.73L15.43-3.73Q17.48-3.73 19.05-4.35 20.63-4.98 21.49-6.03 22.35-7.08 22.35-8.43L22.35-8.43Q22.35-10.25 21.23-11.36 20.1-12.48 17.8-13.25L17.8-13.25 11.88-15.45Q8.05-16.88 6.05-18.74 4.05-20.6 4.05-23.93L4.05-23.93Q4.05-27.7 7-30.06 9.95-32.43 15.3-32.43L15.3-32.43Q20.38-32.43 23.19-30.08 26-27.73 26.4-23.68L26.4-23.68 21.73-23.68Q21.38-25.73 19.81-26.93 18.25-28.13 15.3-28.13L15.3-28.13Q12.45-28.13 10.85-26.89 9.25-25.65 9.25-23.78L9.25-23.78Q9.25-22.23 10.26-21.3 11.28-20.38 13.43-19.63L13.43-19.63 20.18-17.15Q23.65-15.93 25.6-13.85 27.55-11.78 27.55-8.58L27.55-8.58Q27.55-5.88 26.15-3.8 24.75-1.73 22.05-0.54 19.35 0.65 15.48 0.65ZM40.47 0L35.67 0 35.67-31.85 46.35-31.85Q51.67-31.85 54.55-29.2 57.42-26.55 57.42-21.88L57.42-21.88Q57.42-17.25 54.55-14.61 51.67-11.98 46.35-11.98L46.35-11.98 40.47-11.98 40.47 0ZM40.47-27.75L40.47-16.13 46.35-16.13Q49.4-16.13 50.97-17.7 52.55-19.28 52.55-21.88L52.55-21.88Q52.55-24.5 50.97-26.13 49.4-27.75 46.35-27.75L46.35-27.75 40.47-27.75ZM64.05 0L64.05-31.85 73.8-31.85Q78.65-31.85 82.23-29.89 85.82-27.93 87.82-24.35 89.82-20.78 89.82-15.93L89.82-15.93Q89.82-11.1 87.82-7.53 85.82-3.95 82.23-1.98 78.65 0 73.8 0L73.8 0 64.05 0ZM73.8-27.58L68.8-27.58 68.8-4.2 73.8-4.2Q77.2-4.2 79.63-5.73 82.07-7.25 83.4-9.9 84.72-12.55 84.72-15.93L84.72-15.93Q84.72-19.3 83.4-21.94 82.07-24.58 79.63-26.08 77.2-27.58 73.8-27.58L73.8-27.58ZM109.97 0L97.62 0 97.62-31.85 109.94-31.85Q113.52-31.85 115.88-30.7 118.24-29.55 119.42-27.65 120.59-25.75 120.59-23.48L120.59-23.48Q120.59-20.75 119.08-18.78 117.57-16.8 114.67-16.05L114.67-16.05Q116.57-15.73 118.02-14.69 119.47-13.65 120.31-12.13 121.14-10.6 121.14-8.75L121.14-8.75Q121.14-7.18 120.59-5.63 120.04-4.08 118.77-2.8 117.49-1.53 115.34-0.76 113.19 0 109.97 0L109.97 0ZM102.37-13.83L102.37-4.15 109.87-4.15Q113.12-4.15 114.58-5.5 116.04-6.85 116.04-9L116.04-9Q116.04-11.18 114.49-12.5 112.94-13.83 109.87-13.83L109.87-13.83 102.37-13.83ZM109.82-27.75L102.37-27.75 102.37-17.95 109.77-17.95Q112.54-17.95 114.13-19.28 115.72-20.6 115.72-22.95L115.72-22.95Q115.72-25.18 114.18-26.46 112.64-27.75 109.82-27.75L109.82-27.75Z" opacity="1" transform="matrix(1,0,0,1,0,0)" fill="#0262C2" class="wordmark-text-0" data-fill-palette-color="primary" id="text-0"></path></svg></g></svg></g><g transform="matrix(1,0,0,1,0,84.84941223401938)"><svg viewBox="0 0 143.50565145599998 12.672681168890756" height="12.672681168890756" width="143.50565145599998"><g transform="matrix(1,0,0,1,0,0)"><svg width="143.50565145599998" viewBox="3.1 -35.85 546.89 48.3" height="12.672681168890756" data-palette-color="#025cbc"><path d="M13.55 0.45L13.55 0.45Q10.45 0.45 8-0.4 5.55-1.25 3.1-2.7L3.1-2.7Q3.4-4.6 3.5-6.55 3.6-8.5 3.6-10L3.6-10Q4.25-10.2 5.15-10.28 6.05-10.35 6.8-10.35L6.8-10.35Q7-7.7 7.73-5.9 8.45-4.1 10.03-3.15 11.6-2.2 14.15-2.2L14.15-2.2Q17.45-2.2 18.88-3.65 20.3-5.1 20.3-7.15L20.3-7.15Q20.3-9.2 19.1-10.55 17.9-11.9 16-12.88 14.1-13.85 12-14.8 9.9-15.75 8-17.03 6.1-18.3 4.9-20.2 3.7-22.1 3.7-25.05L3.7-25.05Q3.7-28 5-30.05 6.3-32.1 8.63-33.18 10.95-34.25 14.1-34.25L14.1-34.25Q15.85-34.25 17.5-33.95 19.15-33.65 20.53-33.15 21.9-32.65 22.75-32.05L22.75-32.05Q22.75-30.5 22.8-28.55 22.85-26.6 23.05-25.3L23.05-25.3Q22.45-25.05 21.53-24.9 20.6-24.75 19.8-24.75L19.8-24.75Q19.3-27.6 18.5-29.1 17.7-30.6 16.57-31.18 15.45-31.75 13.95-31.75L13.95-31.75Q11.45-31.75 10.03-30.55 8.6-29.35 8.6-27.15L8.6-27.15Q8.6-25.05 9.8-23.65 11-22.25 12.9-21.25 14.8-20.25 16.93-19.25 19.05-18.25 20.98-17 22.9-15.75 24.1-13.9 25.3-12.05 25.3-9.25L25.3-9.25Q25.3-6.65 24.05-4.42 22.8-2.2 20.23-0.88 17.65 0.45 13.55 0.45ZM38.35 0.45L38.35 0.45Q35.25 0.45 33.72-1.15 32.2-2.75 32.2-6.4L32.2-6.4 32.2-19.3Q31.45-19.55 30.62-19.73 29.8-19.9 28.6-19.95L28.6-19.95Q28.6-20.65 28.7-21.2 28.8-21.75 29.05-22.4L29.05-22.4 32.2-22.4 32.2-28.85Q33.4-29.1 34.57-29.7 35.75-30.3 36.55-31L36.55-31Q37.1-30.8 37.3-30.35 37.5-29.9 37.5-28.25L37.5-28.25 37.5-22.4 43.9-22.4Q43.9-21.8 43.8-21.15 43.7-20.5 43.45-19.9L43.45-19.9Q41.65-19.9 40.17-19.7 38.7-19.5 37.5-19.25L37.5-19.25 37.5-7.4Q37.5-5.65 37.82-4.58 38.15-3.5 38.77-3 39.4-2.5 40.3-2.5L40.3-2.5Q41.3-2.5 42.07-2.78 42.85-3.05 43.55-3.6L43.55-3.6Q44.2-2.8 44.3-1.7L44.3-1.7Q43.45-0.8 41.75-0.18 40.05 0.45 38.35 0.45ZM56.95 0.2L56.95 0.2Q53.5 0.2 51.57-1.75 49.65-3.7 49.65-8.75L49.65-8.75 49.65-15.8Q49.65-17.7 49.15-18.57 48.65-19.45 46.4-19.5L46.4-19.5Q46.4-20.1 46.47-20.63 46.55-21.15 46.8-21.65L46.8-21.65Q48.65-21.75 50.62-22.25 52.6-22.75 53.75-23.35L53.75-23.35Q54.25-23.15 54.6-22.65 54.95-22.15 54.95-21L54.95-21 54.95-9.9Q54.95-6.55 55.8-4.85 56.65-3.15 58.8-3.15L58.8-3.15Q61.15-3.15 62.75-5.2 64.34-7.25 64.34-11.55L64.34-11.55 64.34-16.05Q64.34-17.95 63.72-18.82 63.1-19.7 60.65-19.75L60.65-19.75Q60.65-20.35 60.7-20.88 60.75-21.4 61.05-21.9L61.05-21.9Q63.25-22 65.27-22.43 67.3-22.85 68.45-23.35L68.45-23.35Q68.95-23.15 69.3-22.65 69.65-22.15 69.65-21L69.65-21 69.65-6.65 65.05-4.8Q64.8-4.1 64.34-3.45 63.9-2.8 63.3-2.25L63.3-2.25Q62.05-1.05 60.55-0.43 59.05 0.2 56.95 0.2ZM66.15 0.45L66.15 0.45Q65.55 0.2 65.17-0.33 64.8-0.85 64.8-2.45L64.8-2.45Q64.8-3.05 64.9-4.08 65-5.1 65.3-6.7L65.3-6.7 69.65-7.25Q69.65-6 69.84-5.2 70.05-4.4 70.7-4.05 71.34-3.7 72.7-3.7L72.7-3.7Q72.7-3.1 72.65-2.4 72.59-1.7 72.34-1.1L72.34-1.1Q70.95-1.05 69.2-0.65 67.45-0.25 66.15 0.45ZM89.24-23.35L89.24-23.35Q90.59-23.35 91.64-23.13 92.69-22.9 93.89-22.5L93.89-22.5 93.89-18.45Q92.89-19.5 91.79-20.18 90.69-20.85 89.04-20.85L89.04-20.85Q87.99-20.85 86.82-20.45 85.64-20.05 84.54-19.03 83.44-18 82.77-16.13 82.09-14.25 82.09-11.25L82.09-11.25Q82.09-8.3 82.94-6.5 83.79-4.7 85.02-3.83 86.24-2.95 87.39-2.95L87.39-2.95Q88.84-2.95 90.17-3.85 91.49-4.75 92.37-6.78 93.24-8.8 93.24-12.2L93.24-12.2 94.84-6.95Q94.14-5.25 93.59-4.33 93.04-3.4 92.69-3L92.69-3Q92.19-2.25 91.22-1.48 90.24-0.7 88.89-0.13 87.54 0.45 85.89 0.45L85.89 0.45Q82.99 0.45 80.87-0.7 78.74-1.85 77.57-4.28 76.39-6.7 76.39-10.5L76.39-10.5Q76.39-14.1 77.99-17 79.59-19.9 82.49-21.63 85.39-23.35 89.24-23.35ZM94.39-6.8L98.49-7.25Q98.49-6 98.69-5.2 98.89-4.4 99.57-4.05 100.24-3.7 101.54-3.7L101.54-3.7Q101.59-3.1 101.52-2.4 101.44-1.7 101.19-1.1L101.19-1.1Q99.79-1.05 98.04-0.65 96.29-0.25 94.99 0.45L94.99 0.45Q94.39 0.2 94.02-0.33 93.64-0.85 93.64-2.45L93.64-2.45Q93.64-3.45 93.84-4.28 94.04-5.1 94.39-6.8L94.39-6.8ZM93.24-28.7L98.49-28.7 98.49-6.4 93.24-6.4 93.24-28.7ZM97.29-35.85L97.29-35.85Q97.79-35.65 98.14-35.15 98.49-34.65 98.49-33.65L98.49-33.65 98.49-26.9 93.24-26.9 93.24-28.45Q93.24-29.65 92.99-30.43 92.74-31.2 91.94-31.6 91.14-32 89.49-32L89.49-32Q89.49-32.6 89.59-33.15 89.69-33.7 89.94-34.15L89.94-34.15Q90.99-34.15 92.47-34.4 93.94-34.65 95.32-35.05 96.69-35.45 97.29-35.85ZM116.29 0.45L116.29 0.45Q112.54 0.45 110.12-1.15 107.69-2.75 106.47-5.45 105.24-8.15 105.24-11.4L105.24-11.4Q105.24-14.7 106.54-17.4 107.84-20.1 110.27-21.73 112.69-23.35 115.99-23.35L115.99-23.35Q119.34-23.35 121.39-21.95 123.44-20.55 124.47-18.2 125.49-15.85 125.64-12.9L125.64-12.9Q125.44-11.75 124.79-11L124.79-11Q123.79-11 122.06-11 120.34-11 118.22-10.98 116.09-10.95 113.87-10.88 111.64-10.8 109.69-10.7L109.69-10.7 109.69-13.45 119.99-13.45Q119.99-16.75 118.87-18.75 117.74-20.75 115.64-20.75L115.64-20.75Q114.44-20.75 113.34-20 112.24-19.25 111.54-17.48 110.84-15.7 110.84-12.55L110.84-12.55Q110.84-10.05 111.49-7.78 112.14-5.5 113.69-4.08 115.24-2.65 118.09-2.65L118.09-2.65Q119.74-2.65 121.37-3.35 122.99-4.05 124.24-5.35L124.24-5.35Q124.64-5.15 125.02-4.6 125.39-4.05 125.44-3.55L125.44-3.55Q123.69-1.4 121.42-0.48 119.14 0.45 116.29 0.45ZM138.39-21L133.09-10.6 133.09-15.8Q133.09-17.1 132.86-17.88 132.64-18.65 131.84-19.05 131.04-19.45 129.39-19.5L129.39-19.5Q129.39-20.1 129.49-20.65 129.59-21.2 129.84-21.65L129.84-21.65Q131.74-21.75 133.89-22.25 136.04-22.75 137.19-23.35L137.19-23.35Q137.69-23.15 138.04-22.65 138.39-22.15 138.39-21L138.39-21ZM153.49-14.95L153.49-6.6Q153.49-4.05 154.16-3.15 154.84-2.25 156.34-2.25L156.34-2.25Q156.49-1.75 156.54-1.2 156.59-0.65 156.59 0.15L156.59 0.15Q155.49 0.05 153.99 0.03 152.49 0 150.94 0L150.94 0Q149.89 0 148.71 0.03 147.54 0.05 146.49 0.08 145.44 0.1 144.64 0.15L144.64 0.15Q144.64-0.6 144.69-1.2 144.74-1.8 144.94-2.25L144.94-2.25Q146.59-2.25 147.39-3.2 148.19-4.15 148.19-6.7L148.19-6.7 148.19-13.65Q148.19-17.1 146.99-18.35 145.79-19.6 143.79-19.6L143.79-19.6Q142.54-19.6 141.29-18.75 140.04-17.9 139.21-16.1 138.39-14.3 138.39-11.35L138.39-11.35 138.39-6.6Q138.39-4.1 139.11-3.18 139.84-2.25 141.64-2.25L141.64-2.25Q141.84-1.75 141.89-1.18 141.94-0.6 141.94 0.15L141.94 0.15Q141.24 0.1 140.19 0.08 139.14 0.05 137.99 0.03 136.84 0 135.74 0L135.74 0Q134.69 0 133.51 0.03 132.34 0.05 131.24 0.08 130.14 0.1 129.39 0.15L129.39 0.15Q129.39-0.6 129.46-1.23 129.54-1.85 129.69-2.25L129.69-2.25Q131.64-2.25 132.36-3.18 133.09-4.1 133.09-6.6L133.09-6.6 133.09-15.8 138.39-21Q138.39-20.4 138.31-19.65 138.24-18.9 137.99-18.05L137.99-18.05Q138.19-18.4 138.39-18.8 138.59-19.2 138.94-19.65L138.94-19.65Q139.84-20.8 141.69-21.95 143.54-23.1 146.09-23.1L146.09-23.1Q148.04-23.1 149.74-22.33 151.44-21.55 152.46-19.78 153.49-18 153.49-14.95L153.49-14.95ZM169.04 0.45L169.04 0.45Q165.94 0.45 164.41-1.15 162.89-2.75 162.89-6.4L162.89-6.4 162.89-19.3Q162.14-19.55 161.31-19.73 160.49-19.9 159.29-19.95L159.29-19.95Q159.29-20.65 159.39-21.2 159.49-21.75 159.74-22.4L159.74-22.4 162.89-22.4 162.89-28.85Q164.09-29.1 165.26-29.7 166.44-30.3 167.24-31L167.24-31Q167.79-30.8 167.99-30.35 168.19-29.9 168.19-28.25L168.19-28.25 168.19-22.4 174.59-22.4Q174.59-21.8 174.49-21.15 174.39-20.5 174.14-19.9L174.14-19.9Q172.34-19.9 170.86-19.7 169.39-19.5 168.19-19.25L168.19-19.25 168.19-7.4Q168.19-5.65 168.51-4.58 168.84-3.5 169.46-3 170.09-2.5 170.99-2.5L170.99-2.5Q171.99-2.5 172.76-2.78 173.54-3.05 174.24-3.6L174.24-3.6Q174.89-2.8 174.99-1.7L174.99-1.7Q174.14-0.8 172.44-0.18 170.74 0.45 169.04 0.45ZM188.08 12.25L188.08 12.25Q188.08 11.45 188.13 10.85 188.18 10.25 188.38 9.85L188.38 9.85Q189.73 9.75 190.46 9.35 191.18 8.95 191.48 8 191.78 7.05 191.78 5.3L191.78 5.3 191.78-15.8Q191.78-17.1 191.56-17.88 191.33-18.65 190.53-19.05 189.73-19.45 188.08-19.5L188.08-19.5Q188.08-20.1 188.18-20.65 188.28-21.2 188.53-21.65L188.53-21.65Q190.43-21.75 192.58-22.25 194.73-22.75 195.88-23.35L195.88-23.35Q196.38-23.15 196.73-22.65 197.08-22.15 197.08-21L197.08-21Q197.08-20 196.76-19 196.43-18 195.93-16.45L195.93-16.45 197.08-15.45 197.08 4.35Q197.08 6.5 197.53 7.65 197.98 8.8 199.01 9.25 200.03 9.7 201.68 9.85L201.68 9.85Q201.83 10.3 201.91 10.9 201.98 11.5 201.98 12.25L201.98 12.25Q201.18 12.2 200.08 12.18 198.98 12.15 197.73 12.13 196.48 12.1 195.23 12.1L195.23 12.1Q193.33 12.1 191.28 12.13 189.23 12.15 188.08 12.25ZM201.08 0.45L201.08 0.45Q199.73 0.45 198.71 0.23 197.68 0 196.43-0.4L196.43-0.4 196.43-4.45Q197.38-3.4 198.51-2.73 199.63-2.05 201.28-2.05L201.28-2.05Q202.28-2.05 203.46-2.45 204.63-2.85 205.73-3.88 206.83-4.9 207.53-6.78 208.23-8.65 208.23-11.65L208.23-11.65Q208.23-14.1 207.56-15.98 206.88-17.85 205.68-18.9 204.48-19.95 202.88-19.95L202.88-19.95Q201.48-19.95 200.13-19.05 198.78-18.15 197.93-16.13 197.08-14.1 197.08-10.7L197.08-10.7 195.48-15.95Q196.18-17.65 196.71-18.57 197.23-19.5 197.63-19.9L197.63-19.9Q198.08-20.65 199.06-21.45 200.03-22.25 201.41-22.8 202.78-23.35 204.38-23.35L204.38-23.35Q207.33-23.35 209.43-22.23 211.53-21.1 212.71-18.75 213.88-16.4 213.88-12.8L213.88-12.8Q213.88-9 212.28-6 210.68-3 207.81-1.28 204.93 0.45 201.08 0.45ZM226.58-11.35L226.58-7.75Q226.58-5.6 227.03-4.45 227.48-3.3 228.5-2.85 229.53-2.4 231.18-2.25L231.18-2.25Q231.33-1.8 231.4-1.2 231.48-0.6 231.48 0.15L231.48 0.15Q230.68 0.1 229.58 0.08 228.48 0.05 227.23 0.03 225.98 0 224.73 0L224.73 0Q222.83 0 220.78 0.03 218.73 0.05 217.58 0.15L217.58 0.15Q217.58-0.65 217.63-1.25 217.68-1.85 217.88-2.25L217.88-2.25Q219.23-2.35 219.95-2.75 220.68-3.15 220.98-4.1 221.28-5.05 221.28-6.8L221.28-6.8 221.28-11.35 226.58-11.35ZM225.68-15.3L226.58-14.65 226.58-10.6 221.28-10.6 221.28-16.15 226.58-21Q226.58-19.45 226.28-18.1 225.98-16.75 225.68-15.3L225.68-15.3ZM226.58-11.9L225.48-15Q225.98-16.35 226.3-17.32 226.63-18.3 226.98-18.9L226.98-18.9Q228.08-20.65 229.6-21.8 231.13-22.95 233.13-22.95L233.13-22.95Q235.03-22.95 236.58-21.75L236.58-21.75Q236.48-20.9 236.38-19.78 236.28-18.65 236.25-17.53 236.23-16.4 236.23-15.45L236.23-15.45Q235.68-15.25 234.78-15.1 233.88-14.95 232.98-14.95L232.98-14.95Q232.88-17.2 232.25-17.98 231.63-18.75 230.63-18.75L230.63-18.75Q229.83-18.75 228.85-17.8 227.88-16.85 227.23-15.3 226.58-13.75 226.58-11.9L226.58-11.9ZM226.58-21L221.28-10.6 221.28-15.8Q221.28-17.1 221.05-17.88 220.83-18.65 220.03-19.05 219.23-19.45 217.58-19.5L217.58-19.5Q217.58-20.1 217.68-20.65 217.78-21.2 218.03-21.65L218.03-21.65Q219.93-21.75 222.08-22.25 224.23-22.75 225.38-23.35L225.38-23.35Q225.88-23.15 226.23-22.65 226.58-22.15 226.58-21L226.58-21ZM251.13 0.45L251.13 0.45Q247.58 0.45 244.95-1.03 242.33-2.5 240.9-5.15 239.48-7.8 239.48-11.4L239.48-11.4Q239.48-14.9 241-17.6 242.53-20.3 245.18-21.83 247.83-23.35 251.18-23.35L251.18-23.35Q254.93-23.35 257.53-21.85 260.13-20.35 261.48-17.7 262.83-15.05 262.83-11.5L262.83-11.5Q262.83-8.05 261.38-5.33 259.93-2.6 257.3-1.07 254.68 0.45 251.13 0.45ZM251.63-2.2L251.63-2.2Q254.43-2.2 255.78-4.58 257.13-6.95 257.13-10.75L257.13-10.75Q257.13-13.85 256.25-16.13 255.38-18.4 253.9-19.58 252.43-20.75 250.68-20.75L250.68-20.75Q247.93-20.75 246.58-18.45 245.23-16.15 245.23-12.55L245.23-12.55Q245.23-9.35 246-7 246.78-4.65 248.23-3.43 249.68-2.2 251.63-2.2ZM266.72 12.45L266.72 12.45Q266.27 12.2 265.9 11.75 265.52 11.3 265.42 10.7L265.42 10.7Q267.32 8.6 268.37 6.85 269.42 5.1 269.82 3.23 270.22 1.35 270.22-1.1L270.22-1.1 270.22-15.95Q270.22-17.15 270-17.93 269.77-18.7 268.97-19.1 268.17-19.5 266.52-19.5L266.52-19.5Q266.52-20.1 266.62-20.65 266.72-21.2 266.97-21.65L266.97-21.65Q268.02-21.65 269.5-21.9 270.97-22.15 272.32-22.55 273.67-22.95 274.32-23.35L274.32-23.35Q274.82-23.15 275.17-22.65 275.52-22.15 275.52-21.15L275.52-21.15 275.52-2.05Q275.52 0.75 274.75 3.05 273.97 5.35 272.67 7.15 271.37 8.95 269.82 10.28 268.27 11.6 266.72 12.45ZM272.42-28.5L272.42-28.5Q270.97-28.5 270.05-29.38 269.12-30.25 269.12-31.55L269.12-31.55Q269.12-33.05 270.12-33.95 271.12-34.85 272.47-34.85L272.47-34.85Q274.02-34.85 274.92-33.95 275.82-33.05 275.82-31.6L275.82-31.6Q275.82-30.35 274.85-29.43 273.87-28.5 272.42-28.5ZM292.27 0.45L292.27 0.45Q288.52 0.45 286.1-1.15 283.67-2.75 282.45-5.45 281.22-8.15 281.22-11.4L281.22-11.4Q281.22-14.7 282.52-17.4 283.82-20.1 286.25-21.73 288.67-23.35 291.97-23.35L291.97-23.35Q295.32-23.35 297.37-21.95 299.42-20.55 300.45-18.2 301.47-15.85 301.62-12.9L301.62-12.9Q301.42-11.75 300.77-11L300.77-11Q299.77-11 298.05-11 296.32-11 294.2-10.98 292.07-10.95 289.85-10.88 287.62-10.8 285.67-10.7L285.67-10.7 285.67-13.45 295.97-13.45Q295.97-16.75 294.85-18.75 293.72-20.75 291.62-20.75L291.62-20.75Q290.42-20.75 289.32-20 288.22-19.25 287.52-17.48 286.82-15.7 286.82-12.55L286.82-12.55Q286.82-10.05 287.47-7.78 288.12-5.5 289.67-4.08 291.22-2.65 294.07-2.65L294.07-2.65Q295.72-2.65 297.35-3.35 298.97-4.05 300.22-5.35L300.22-5.35Q300.62-5.15 301-4.6 301.37-4.05 301.42-3.55L301.42-3.55Q299.67-1.4 297.4-0.48 295.12 0.45 292.27 0.45ZM324.62-3.6L324.62-3.6Q323.27-1.6 321.22-0.58 319.17 0.45 316.32 0.45L316.32 0.45Q313.52 0.45 311.07-0.88 308.62-2.2 307.04-4.83 305.47-7.45 305.47-11.35L305.47-11.35Q305.47-14.35 306.72-17.1 307.97-19.85 310.37-21.6 312.77-23.35 316.22-23.35L316.22-23.35Q318.67-23.35 320.62-22.8 322.57-22.25 324.02-21.15L324.02-21.15Q323.82-19.7 323.72-18.28 323.62-16.85 323.62-15.3L323.62-15.3Q323.12-15.05 322.32-14.95 321.52-14.85 320.87-14.85L320.87-14.85Q320.62-17.75 319.32-19.28 318.02-20.8 315.92-20.8L315.92-20.8Q313.62-20.8 312.24-18.53 310.87-16.25 310.87-12.1L310.87-12.1Q310.87-9.7 311.67-7.53 312.47-5.35 314.04-4 315.62-2.65 317.92-2.65L317.92-2.65Q319.52-2.65 320.92-3.35 322.32-4.05 323.37-5.3L323.37-5.3Q323.82-5.05 324.14-4.6 324.47-4.15 324.62-3.6ZM336.87 0.45L336.87 0.45Q333.77 0.45 332.24-1.15 330.72-2.75 330.72-6.4L330.72-6.4 330.72-19.3Q329.97-19.55 329.14-19.73 328.32-19.9 327.12-19.95L327.12-19.95Q327.12-20.65 327.22-21.2 327.32-21.75 327.57-22.4L327.57-22.4 330.72-22.4 330.72-28.85Q331.92-29.1 333.09-29.7 334.27-30.3 335.07-31L335.07-31Q335.62-30.8 335.82-30.35 336.02-29.9 336.02-28.25L336.02-28.25 336.02-22.4 342.42-22.4Q342.42-21.8 342.32-21.15 342.22-20.5 341.97-19.9L341.97-19.9Q340.17-19.9 338.69-19.7 337.22-19.5 336.02-19.25L336.02-19.25 336.02-7.4Q336.02-5.65 336.34-4.58 336.67-3.5 337.29-3 337.92-2.5 338.82-2.5L338.82-2.5Q339.82-2.5 340.59-2.78 341.37-3.05 342.07-3.6L342.07-3.6Q342.72-2.8 342.82-1.7L342.82-1.7Q341.97-0.8 340.27-0.18 338.57 0.45 336.87 0.45ZM368.86-23.35L368.86-23.35Q370.21-23.35 371.26-23.13 372.31-22.9 373.51-22.5L373.51-22.5 373.51-18.45Q372.51-19.5 371.41-20.18 370.31-20.85 368.66-20.85L368.66-20.85Q367.61-20.85 366.44-20.45 365.26-20.05 364.16-19.03 363.06-18 362.38-16.13 361.71-14.25 361.71-11.25L361.71-11.25Q361.71-8.3 362.56-6.5 363.41-4.7 364.63-3.83 365.86-2.95 367.01-2.95L367.01-2.95Q368.46-2.95 369.79-3.85 371.11-4.75 371.99-6.78 372.86-8.8 372.86-12.2L372.86-12.2 374.46-6.95Q373.76-5.25 373.21-4.33 372.66-3.4 372.31-3L372.31-3Q371.81-2.25 370.84-1.48 369.86-0.7 368.51-0.13 367.16 0.45 365.51 0.45L365.51 0.45Q362.61 0.45 360.49-0.7 358.36-1.85 357.19-4.28 356.01-6.7 356.01-10.5L356.01-10.5Q356.01-14.1 357.61-17 359.21-19.9 362.11-21.63 365.01-23.35 368.86-23.35ZM374.01-6.8L378.11-7.25Q378.11-6 378.31-5.2 378.51-4.4 379.19-4.05 379.86-3.7 381.16-3.7L381.16-3.7Q381.21-3.1 381.13-2.4 381.06-1.7 380.81-1.1L380.81-1.1Q379.41-1.05 377.66-0.65 375.91-0.25 374.61 0.45L374.61 0.45Q374.01 0.2 373.63-0.33 373.26-0.85 373.26-2.45L373.26-2.45Q373.26-3.45 373.46-4.28 373.66-5.1 374.01-6.8L374.01-6.8ZM372.86-28.7L378.11-28.7 378.11-6.4 372.86-6.4 372.86-28.7ZM376.91-35.85L376.91-35.85Q377.41-35.65 377.76-35.15 378.11-34.65 378.11-33.65L378.11-33.65 378.11-26.9 372.86-26.9 372.86-28.45Q372.86-29.65 372.61-30.43 372.36-31.2 371.56-31.6 370.76-32 369.11-32L369.11-32Q369.11-32.6 369.21-33.15 369.31-33.7 369.56-34.15L369.56-34.15Q370.61-34.15 372.09-34.4 373.56-34.65 374.94-35.05 376.31-35.45 376.91-35.85ZM400.41 0.45L400.41 0.45Q399.81 0.2 399.46-0.48 399.11-1.15 399.11-2.5L399.11-2.5Q399.11-3 399.18-3.68 399.26-4.35 399.41-4.95L399.41-4.95 399.56-4.95Q399.36-4 398.78-3.05 398.21-2.1 397.36-1.35L397.36-1.35Q396.46-0.6 395.11-0.13 393.76 0.35 391.91 0.35L391.91 0.35Q388.71 0.35 386.98-1.07 385.26-2.5 385.26-5.05L385.26-5.05Q385.26-7 386.18-8.38 387.11-9.75 388.58-10.68 390.06-11.6 391.81-12.15 393.56-12.7 395.28-13.03 397.01-13.35 398.41-13.55L398.41-13.55Q398.41-15.45 398.33-16.55 398.26-17.65 398.03-18.32 397.81-19 397.36-19.5L397.36-19.5Q396.76-20.2 396.01-20.55 395.26-20.9 394.36-20.9L394.36-20.9Q392.76-20.9 391.86-19.93 390.96-18.95 390.56-17.63 390.16-16.3 390.06-15.15L390.06-15.15Q389.36-15.15 388.46-15.25 387.56-15.35 387.01-15.55L387.01-15.55Q387.11-16.85 387.08-18.4 387.06-19.95 386.76-21.15L386.76-21.15Q388.86-22.2 391.26-22.78 393.66-23.35 395.71-23.35L395.71-23.35Q397.86-23.35 399.31-22.8 400.76-22.25 401.56-21.35L401.56-21.35Q402.81-20.15 403.26-18.18 403.71-16.2 403.71-12.8L403.71-12.8 403.71-7.65Q403.71-6.2 403.93-5.35 404.16-4.5 404.81-4.13 405.46-3.75 406.76-3.7L406.76-3.7Q406.81-3.1 406.73-2.4 406.66-1.7 406.41-1.1L406.41-1.1Q405.01-1.05 403.36-0.65 401.71-0.25 400.41 0.45ZM393.61-2.8L393.61-2.8Q394.71-2.8 395.81-3.53 396.91-4.25 397.66-5.73 398.41-7.2 398.41-9.6L398.41-9.6 398.41-11.35Q397.11-11.15 395.76-10.85 394.41-10.55 393.28-10 392.16-9.45 391.48-8.55 390.81-7.65 390.81-6.15L390.81-6.15Q390.81-4.4 391.66-3.6 392.51-2.8 393.61-2.8ZM419.21 0.45L419.21 0.45Q416.11 0.45 414.58-1.15 413.06-2.75 413.06-6.4L413.06-6.4 413.06-19.3Q412.31-19.55 411.48-19.73 410.66-19.9 409.46-19.95L409.46-19.95Q409.46-20.65 409.56-21.2 409.66-21.75 409.91-22.4L409.91-22.4 413.06-22.4 413.06-28.85Q414.26-29.1 415.43-29.7 416.61-30.3 417.41-31L417.41-31Q417.96-30.8 418.16-30.35 418.36-29.9 418.36-28.25L418.36-28.25 418.36-22.4 424.76-22.4Q424.76-21.8 424.66-21.15 424.56-20.5 424.31-19.9L424.31-19.9Q422.51-19.9 421.03-19.7 419.56-19.5 418.36-19.25L418.36-19.25 418.36-7.4Q418.36-5.65 418.68-4.58 419.01-3.5 419.63-3 420.26-2.5 421.16-2.5L421.16-2.5Q422.16-2.5 422.93-2.78 423.71-3.05 424.41-3.6L424.41-3.6Q425.06-2.8 425.16-1.7L425.16-1.7Q424.31-0.8 422.61-0.18 420.91 0.45 419.21 0.45ZM443.9 0.45L443.9 0.45Q443.3 0.2 442.95-0.48 442.6-1.15 442.6-2.5L442.6-2.5Q442.6-3 442.68-3.68 442.75-4.35 442.9-4.95L442.9-4.95 443.05-4.95Q442.85-4 442.28-3.05 441.7-2.1 440.85-1.35L440.85-1.35Q439.95-0.6 438.6-0.13 437.25 0.35 435.4 0.35L435.4 0.35Q432.2 0.35 430.48-1.07 428.75-2.5 428.75-5.05L428.75-5.05Q428.75-7 429.68-8.38 430.6-9.75 432.08-10.68 433.55-11.6 435.3-12.15 437.05-12.7 438.78-13.03 440.5-13.35 441.9-13.55L441.9-13.55Q441.9-15.45 441.83-16.55 441.75-17.65 441.53-18.32 441.3-19 440.85-19.5L440.85-19.5Q440.25-20.2 439.5-20.55 438.75-20.9 437.85-20.9L437.85-20.9Q436.25-20.9 435.35-19.93 434.45-18.95 434.05-17.63 433.65-16.3 433.55-15.15L433.55-15.15Q432.85-15.15 431.95-15.25 431.05-15.35 430.5-15.55L430.5-15.55Q430.6-16.85 430.58-18.4 430.55-19.95 430.25-21.15L430.25-21.15Q432.35-22.2 434.75-22.78 437.15-23.35 439.2-23.35L439.2-23.35Q441.35-23.35 442.8-22.8 444.25-22.25 445.05-21.35L445.05-21.35Q446.3-20.15 446.75-18.18 447.2-16.2 447.2-12.8L447.2-12.8 447.2-7.65Q447.2-6.2 447.43-5.35 447.65-4.5 448.3-4.13 448.95-3.75 450.25-3.7L450.25-3.7Q450.3-3.1 450.23-2.4 450.15-1.7 449.9-1.1L449.9-1.1Q448.5-1.05 446.85-0.65 445.2-0.25 443.9 0.45ZM437.1-2.8L437.1-2.8Q438.2-2.8 439.3-3.53 440.4-4.25 441.15-5.73 441.9-7.2 441.9-9.6L441.9-9.6 441.9-11.35Q440.6-11.15 439.25-10.85 437.9-10.55 436.78-10 435.65-9.45 434.98-8.55 434.3-7.65 434.3-6.15L434.3-6.15Q434.3-4.4 435.15-3.6 436-2.8 437.1-2.8ZM461.45-2.9L460.8-4.45Q461.75-3.4 462.88-2.73 464-2.05 465.65-2.05L465.65-2.05Q466.7-2.05 467.88-2.45 469.05-2.85 470.15-3.9 471.25-4.95 471.93-6.8 472.6-8.65 472.6-11.65L472.6-11.65Q472.6-14.6 471.75-16.4 470.9-18.2 469.68-19.07 468.45-19.95 467.25-19.95L467.25-19.95Q465.85-19.95 464.53-19.05 463.2-18.15 462.33-16.13 461.45-14.1 461.45-10.7L461.45-10.7 461.45-2.9ZM465.45 0.45L465.45 0.45Q463.15 0.45 461.15 0 459.15-0.45 457.63-1.23 456.1-2 455.05-3L455.05-3Q455.65-3.7 455.93-5.03 456.2-6.35 456.2-9.1L456.2-9.1 456.2-28.45Q456.2-29.65 455.95-30.43 455.7-31.2 454.9-31.6 454.1-32 452.45-32L452.45-32Q452.45-32.6 452.55-33.15 452.65-33.7 452.9-34.15L452.9-34.15Q453.95-34.15 455.45-34.4 456.95-34.65 458.28-35.05 459.6-35.45 460.25-35.85L460.25-35.85Q460.75-35.65 461.1-35.15 461.45-34.65 461.45-33.65L461.45-33.65 461.45-21.3Q461.45-20.25 461.35-19.58 461.25-18.9 461.15-18.25L461.15-18.25 460.85-14.05 459.85-15.95Q460.55-17.65 461.1-18.57 461.65-19.5 462-19.9L462-19.9Q462.45-20.65 463.43-21.45 464.4-22.25 465.78-22.8 467.15-23.35 468.75-23.35L468.75-23.35Q471.7-23.35 473.83-22.2 475.95-21.05 477.1-18.63 478.25-16.2 478.25-12.4L478.25-12.4Q478.25-8.8 476.68-5.9 475.1-3 472.23-1.28 469.35 0.45 465.45 0.45ZM497.65 0.45L497.65 0.45Q497.05 0.2 496.7-0.48 496.35-1.15 496.35-2.5L496.35-2.5Q496.35-3 496.42-3.68 496.5-4.35 496.65-4.95L496.65-4.95 496.8-4.95Q496.6-4 496.02-3.05 495.45-2.1 494.6-1.35L494.6-1.35Q493.7-0.6 492.35-0.13 491 0.35 489.15 0.35L489.15 0.35Q485.95 0.35 484.22-1.07 482.5-2.5 482.5-5.05L482.5-5.05Q482.5-7 483.42-8.38 484.35-9.75 485.82-10.68 487.3-11.6 489.05-12.15 490.8-12.7 492.52-13.03 494.25-13.35 495.65-13.55L495.65-13.55Q495.65-15.45 495.57-16.55 495.5-17.65 495.27-18.32 495.05-19 494.6-19.5L494.6-19.5Q494-20.2 493.25-20.55 492.5-20.9 491.6-20.9L491.6-20.9Q490-20.9 489.1-19.93 488.2-18.95 487.8-17.63 487.4-16.3 487.3-15.15L487.3-15.15Q486.6-15.15 485.7-15.25 484.8-15.35 484.25-15.55L484.25-15.55Q484.35-16.85 484.32-18.4 484.3-19.95 484-21.15L484-21.15Q486.1-22.2 488.5-22.78 490.9-23.35 492.95-23.35L492.95-23.35Q495.1-23.35 496.55-22.8 498-22.25 498.8-21.35L498.8-21.35Q500.05-20.15 500.5-18.18 500.95-16.2 500.95-12.8L500.95-12.8 500.95-7.65Q500.95-6.2 501.17-5.35 501.4-4.5 502.05-4.13 502.7-3.75 504-3.7L504-3.7Q504.05-3.1 503.97-2.4 503.9-1.7 503.65-1.1L503.65-1.1Q502.25-1.05 500.6-0.65 498.95-0.25 497.65 0.45ZM490.85-2.8L490.85-2.8Q491.95-2.8 493.05-3.53 494.15-4.25 494.9-5.73 495.65-7.2 495.65-9.6L495.65-9.6 495.65-11.35Q494.35-11.15 493-10.85 491.65-10.55 490.52-10 489.4-9.45 488.72-8.55 488.05-7.65 488.05-6.15L488.05-6.15Q488.05-4.4 488.9-3.6 489.75-2.8 490.85-2.8ZM524.05-21.65L524.05-21.65Q524-20.4 524-19.05 524-17.7 524.2-16.4L524.2-16.4Q523.65-16.1 522.87-15.93 522.1-15.75 521.3-15.75L521.3-15.75Q521.2-17.1 520.52-18.3 519.85-19.5 518.7-20.25 517.55-21 515.95-21L515.95-21Q514.5-21 513.65-20.3 512.8-19.6 512.8-18.45L512.8-18.45Q512.8-17.65 513.15-17.03 513.5-16.4 514.75-15.68 516-14.95 518.6-13.9L518.6-13.9Q521.35-12.9 522.9-11.88 524.45-10.85 525.12-9.63 525.8-8.4 525.8-6.6L525.8-6.6Q525.8-4.5 524.57-2.9 523.35-1.3 521.17-0.43 519 0.45 516.25 0.45L516.25 0.45Q513.2 0.45 511.37-0.03 509.55-0.5 507.75-1.35L507.75-1.35Q507.9-2.2 507.92-3.35 507.95-4.5 507.95-5.63 507.95-6.75 507.85-7.55L507.85-7.55Q508.3-7.9 509.15-8.05 510-8.2 510.8-8.2L510.8-8.2Q511.2-5.15 512.67-3.65 514.15-2.15 516.6-2.15L516.6-2.15Q518.45-2.15 519.52-2.98 520.6-3.8 520.6-5.15L520.6-5.15Q520.6-6 520.17-6.65 519.75-7.3 518.65-7.93 517.55-8.55 515.35-9.4L515.35-9.4Q512.75-10.45 511.12-11.4 509.5-12.35 508.75-13.68 508-15 508-17.05L508-17.05Q508-18.65 508.8-19.85 509.6-21.05 510.87-21.83 512.15-22.6 513.67-22.98 515.2-23.35 516.6-23.35L516.6-23.35Q519-23.35 520.75-22.93 522.5-22.5 524.05-21.65ZM540.64 0.45L540.64 0.45Q536.89 0.45 534.47-1.15 532.04-2.75 530.82-5.45 529.59-8.15 529.59-11.4L529.59-11.4Q529.59-14.7 530.89-17.4 532.19-20.1 534.62-21.73 537.04-23.35 540.34-23.35L540.34-23.35Q543.69-23.35 545.74-21.95 547.79-20.55 548.82-18.2 549.84-15.85 549.99-12.9L549.99-12.9Q549.79-11.75 549.14-11L549.14-11Q548.14-11 546.42-11 544.69-11 542.57-10.98 540.44-10.95 538.22-10.88 535.99-10.8 534.04-10.7L534.04-10.7 534.04-13.45 544.34-13.45Q544.34-16.75 543.22-18.75 542.09-20.75 539.99-20.75L539.99-20.75Q538.79-20.75 537.69-20 536.59-19.25 535.89-17.48 535.19-15.7 535.19-12.55L535.19-12.55Q535.19-10.05 535.84-7.78 536.49-5.5 538.04-4.08 539.59-2.65 542.44-2.65L542.44-2.65Q544.09-2.65 545.72-3.35 547.34-4.05 548.59-5.35L548.59-5.35Q548.99-5.15 549.37-4.6 549.74-4.05 549.79-3.55L549.79-3.55Q548.04-1.4 545.77-0.48 543.49 0.45 540.64 0.45Z" opacity="1" transform="matrix(1,0,0,1,0,0)" fill="#0262C2" class="slogan-text-1" data-fill-palette-color="secondary" id="text-1"></path></svg></g></svg></g></svg></g></svg></g></svg></g></svg></g></svg></g><g><path d="M245.816 0c68.262 0 123.6 55.338 123.6 123.6 0 68.262-55.338 123.6-123.6 123.6-47.759 0-89.191-27.087-109.772-66.736l3.5 0c20.311 37.88 60.283 63.641 106.272 63.641 66.553 0 120.505-53.952 120.504-120.505 0-66.553-53.952-120.505-120.504-120.505-45.989 0-85.96 25.762-106.272 63.641l-3.5 0c20.581-39.649 62.013-66.736 109.772-66.736z" fill="#0262C2" stroke="transparent" data-fill-palette-color="tertiary"></path></g></svg></g><defs></defs></svg><rect width="395.52" height="247.2" fill="none" stroke="none" visibility="hidden"></rect></g></svg></g></svg>